<svg width="48" height="48" viewBox="0 0 48 48" fill="none" xmlns="http://www.w3.org/2000/svg">
  <rect width="48" height="48" rx="12" fill="#FF6B35"/>
  <path d="M24 10C16.268 10 10 16.268 10 24C10 31.732 16.268 38 24 38C31.732 38 38 31.732 38 24C38 16.268 31.732 10 24 10ZM24 34.5C18.201 34.5 13.5 29.799 13.5 24C13.5 18.201 18.201 13.5 24 13.5C29.799 13.5 34.5 18.201 34.5 24C34.5 29.799 29.799 34.5 24 34.5Z" fill="white"/>
  <path d="M24 16C19.5817 16 16 19.5817 16 24H32C32 19.5817 28.4183 16 24 16Z" fill="white"/>
  <circle cx="24" cy="30" r="2.5" fill="white"/>
</svg>